{
  "accessors": [
    {
      "bufferView": 2,
      "componentType": 5126,
      "count": 1595,
      "max": [
        2.216322898864746,
        32.17894744873047,
        0.9382129907608032
      ],
      "min": [
        -2.9651119709014893,
        29.668325424194336,
        -3.2839019298553467
      ],
      "type": "VEC3"
    },
    {
      "bufferView": 2,
      "byteOffset": 19140,
      "componentType": 5126,
      "count": 1595,
      "max": [
        1.0,
        0.9999995231628418,
        0.9997584819793701
      ],
      "min": [
        -1.0,
        -0.9999995231628418,
        -0.9999945163726807
      ],
      "type": "VEC3"
    },
    {
      "bufferView": 1,
      "componentType": 5126,
      "count": 1595,
      "max": [
        1.0,
        0.9999960064888
      ],
      "min": [
        0.0,
        0.0
      ],
      "type": "VEC2"
    },
    {
      "bufferView": 0,
      "componentType": 5125,
      "count": 5268,
      "type": "SCALAR"
    },
    {
      "bufferView": 2,
      "byteOffset": 38280,
      "componentType": 5126,
      "count": 328,
      "max": [
        24.89450454711914,
        65.33372497558594,
        -0.11001099646091461
      ],
      "min": [
        -3.1662399768829346,
        0.1409280002117157,
        -2.181152105331421
      ],
      "type": "VEC3"
    },
    {
      "bufferView": 2,
      "byteOffset": 42216,
      "componentType": 5126,
      "count": 328,
      "max": [
        1.0,
        1.0,
        1.0
      ],
      "min": [
        -1.0,
        -1.0,
        -1.0
      ],
      "type": "VEC3"
    },
    {
      "bufferView": 1,
      "byteOffset": 12760,
      "componentType": 5126,
      "count": 328,
      "max": [
        0.6539270281791687,
        0.9068530201911926
      ],
      "min": [
        0.34597301483154297,
        0.09400500357151031
      ],
      "type": "VEC2"
    },
    {
      "bufferView": 0,
      "byteOffset": 21072,
      "componentType": 5125,
      "count": 540,
      "type": "SCALAR"
    },
    {
      "bufferView": 2,
      "byteOffset": 46152,
      "componentType": 5126,
      "count": 7316,
      "max": [
        26.129562377929688,
        67.68463897705078,
        2.5513460636138916
      ],
      "min": [
        -5.042191028594971,
        -0.3812650144100189,
        -3.396362066268921
      ],
      "type": "VEC3"
    },
    {
      "bufferView": 2,
      "byteOffset": 133944,
      "componentType": 5126,
      "count": 7316,
      "max": [
        1.0,
        1.0,
        1.0
      ],
      "min": [
        -1.0,
        -1.0,
        -1.0
      ],
      "type": "VEC3"
    },
    {
      "bufferView": 1,
      "byteOffset": 15384,
      "componentType": 5126,
      "count": 7316,
      "max": [
        0.9989989995956421,
        0.9989989995956421
      ],
      "min": [
        0.0,
        0.0
      ],
      "type": "VEC2"
    },
    {
      "bufferView": 0,
      "byteOffset": 23232,
      "componentType": 5125,
      "count": 12756,
      "type": "SCALAR"
    }
  ],
  "asset": {
    "extras": {
      "author": "I am Cassia (https://sketchfab.com/iamCassia)",
      "license": "CC-BY-4.0 (http://creativecommons.org/licenses/by/4.0/)",
      "source": "https://sketchfab.com/3d-models/white-door-9dd342e2c2af46ee81a80483986b6754",
      "title": "White Door"
    },
    "generator": "Sketchfab-10.54.0",
    "version": "2.0"
  },
  "bufferViews": [
    {
      "buffer": 0,
      "byteLength": 74256,
      "name": "floatBufferViews",
      "target": 34963
    },
    {
      "buffer": 0,
      "byteLength": 73912,
      "byteOffset": 74256,
      "byteStride": 8,
      "name": "floatBufferViews",
      "target": 34962
    },
    {
      "buffer": 0,
      "byteLength": 221736,
      "byteOffset": 148168,
      "byteStride": 12,
      "name": "floatBufferViews",
      "target": 34962
    }
  ],
  "buffers": [
    {
      "byteLength": 369904,
      "uri": "scene.bin"
    }
  ],
  "images": [
    {
      "uri": "textures/PortaComum.001_baseColor.jpeg"
    },
    {
      "uri": "textures/DoorFrame_baseColor.png"
    }
  ],
  "materials": [
    {
      "doubleSided": true,
      "name": "Door.001",
      "pbrMetallicRoughness": {
        "baseColorFactor": [
          0.41481981408,
          0.41481981408,
          0.41481981408,
          1.0
        ],
        "roughnessFactor": 0.8063508327
      }
    },
    {
      "doubleSided": true,
      "name": "PortaComum.001",
      "pbrMetallicRoughness": {
        "baseColorTexture": {
          "index": 0
        },
        "metallicFactor": 0.4455626896,
        "roughnessFactor": 0.8063508327
      }
    },
    {
      "doubleSided": true,
      "name": "DoorFrame",
      "pbrMetallicRoughness": {
        "baseColorTexture": {
          "index": 1
        },
        "metallicFactor": 0.0,
        "roughnessFactor": 0.8063508327
      }
    }
  ],
  "meshes": [
    {
      "name": "door_Door.001_0",
      "primitives": [
        {
          "attributes": {
            "NORMAL": 1,
            "POSITION": 0,
            "TEXCOORD_0": 2
          },
          "indices": 3,
          "material": 0,
          "mode": 4
        }
      ]
    },
    {
      "name": "door_PortaComum.001_0",
      "primitives": [
        {
          "attributes": {
            "NORMAL": 5,
            "POSITION": 4,
            "TEXCOORD_0": 6
          },
          "indices": 7,
          "material": 1,
          "mode": 4
        }
      ]
    },
    {
      "name": "Frame_DoorFrame_0",
      "primitives": [
        {
          "attributes": {
            "NORMAL": 9,
            "POSITION": 8,
            "TEXCOORD_0": 10
          },
          "indices": 11,
          "material": 2,
          "mode": 4
        }
      ]
    }
  ],
  "nodes": [
    {
      "children": [
        1
      ],
      "matrix": [
        1.0,
        0.0,
        0.0,
        0.0,
        0.0,
        2.220446049250313e-16,
        -1.0,
        0.0,
        0.0,
        1.0,
        2.220446049250313e-16,
        0.0,
        0.0,
        0.0,
        0.0,
        1.0
      ],
      "name": "Sketchfab_model"
    },
    {
      "children": [
        2
      ],
      "matrix": [
        1.0,
        0.0,
        0.0,
        0.0,
        0.0,
        0.0,
        1.0,
        0.0,
        0.0,
        -1.0,
        0.0,
        0.0,
        0.0,
        0.0,
        0.0,
        1.0
      ],
      "name": "door.fbx"
    },
    {
      "children": [
        3,
        6
      ],
      "name": "RootNode"
    },
    {
      "children": [
        4,
        5
      ],
      "matrix": [
        100.0,
        0.0,
        0.0,
        0.0,
        0.0,
        99.99999999999866,
        1.6292067073209114e-05,
        0.0,
        0.0,
        -1.6292067073209114e-05,
        99.99999999999866,
        0.0,
        0.0,
        0.0,
        0.0,
        1.0
      ],
      "name": "door"
    },
    {
      "mesh": 0,
      "name": "door_Door.001_0"
    },
    {
      "mesh": 1,
      "name": "door_PortaComum.001_0"
    },
    {
      "children": [
        7
      ],
      "matrix": [
        100.0,
        0.0,
        0.0,
        0.0,
        0.0,
        99.99999999999866,
        1.6292067073209114e-05,
        0.0,
        0.0,
        -1.6292067073209114e-05,
        99.99999999999866,
        0.0,
        0.0,
        0.0,
        0.0,
        1.0
      ],
      "name": "Frame"
    },
    {
      "mesh": 2,
      "name": "Frame_DoorFrame_0"
    }
  ],
  "samplers": [
    {
      "magFilter": 9729,
      "minFilter": 9987,
      "wrapS": 10497,
      "wrapT": 10497
    }
  ],
  "scene": 0,
  "scenes": [
    {
      "name": "Sketchfab_Scene",
      "nodes": [
        0
      ]
    }
  ],
  "textures": [
    {
      "sampler": 0,
      "source": 0
    },
    {
      "sampler": 0,
      "source": 1
    }
  ]
}
